<?xml version="1.0" encoding="UTF-8" standalone="no"?>
<svg width="56px" height="70px" viewBox="0 0 56 70" version="1.1" xmlns="http://www.w3.org/2000/svg" xmlns:xlink="http://www.w3.org/1999/xlink" xmlns:sketch="http://www.bohemiancoding.com/sketch/ns">
    <!-- Generator: Sketch 3.2.2 (9983) - http://www.bohemiancoding.com/sketch -->
    <title>noun_80935_cc</title>
    <desc>Created with Sketch.</desc>
    <defs></defs>
    <g id="Page-1" stroke="none" stroke-width="1" fill="none" fill-rule="evenodd" sketch:type="MSPage">
        <g id="noun_80935_cc" sketch:type="MSLayerGroup" fill="#000000">
            <path d="M3.807,53.271 L52.194,53.271 C53.977,53.271 55.428,51.82 55.428,50.037 L55.428,19.928 C55.428,18.145 53.977,16.694 52.194,16.694 L3.807,16.694 C2.024,16.694 0.573,18.145 0.573,19.928 L0.573,50.036 C0.572,51.819 2.023,53.271 3.807,53.271 L3.807,53.271 Z M3.072,19.928 C3.072,19.53 3.408,19.194 3.806,19.194 L52.193,19.194 C52.591,19.194 52.927,19.53 52.927,19.928 L52.927,50.036 C52.927,50.434 52.591,50.77 52.193,50.77 L3.807,50.77 C3.409,50.77 3.073,50.434 3.073,50.036 L3.073,19.928 L3.072,19.928 Z" id="Shape" sketch:type="MSShapeGroup"></path>
            <path d="M6.721,48.466 L19.188,48.466 C19.878,48.466 20.438,47.906 20.438,47.216 L20.438,32.75 C20.438,32.06 19.878,31.5 19.188,31.5 L6.721,31.5 C6.031,31.5 5.471,32.06 5.471,32.75 L5.471,47.215 C5.471,47.906 6.03,48.466 6.721,48.466 L6.721,48.466 Z M11.289,39.113 C11.289,37.755 12.052,36.608 12.955,36.608 C13.858,36.608 14.621,37.755 14.621,39.113 C14.621,39.791 14.431,40.416 14.129,40.872 C14.07,40.914 14.004,40.94 13.952,40.993 C13.872,41.076 13.826,41.175 13.773,41.271 C13.529,41.485 13.252,41.618 12.955,41.618 C12.658,41.618 12.379,41.484 12.135,41.269 C12.082,41.174 12.036,41.075 11.957,40.993 C11.905,40.94 11.84,40.914 11.782,40.872 C11.479,40.416 11.289,39.791 11.289,39.113 L11.289,39.113 Z M11.096,43.568 C11.658,43.908 12.284,44.118 12.955,44.118 C13.626,44.118 14.252,43.909 14.813,43.568 L17.288,45.965 L8.621,45.965 L11.096,43.568 L11.096,43.568 Z M17.938,34 L17.938,43.112 L16.497,41.716 C16.886,40.955 17.122,40.069 17.122,39.112 C17.122,36.352 15.253,34.107 12.956,34.107 C10.659,34.107 8.79,36.353 8.79,39.112 C8.79,40.069 9.026,40.954 9.415,41.715 L7.972,43.113 L7.972,34 L17.938,34 L17.938,34 Z" id="Shape" sketch:type="MSShapeGroup"></path>
            <path d="M6.721,28.877 L19.188,28.877 C19.878,28.877 20.438,28.317 20.438,27.627 L20.438,22.352 C20.438,21.662 19.878,21.102 19.188,21.102 L6.721,21.102 C6.031,21.102 5.471,21.662 5.471,22.352 L5.471,27.627 C5.471,28.318 6.03,28.877 6.721,28.877 L6.721,28.877 Z M7.971,23.603 L17.938,23.603 L17.938,26.378 L7.971,26.378 L7.971,23.603 L7.971,23.603 Z" id="Shape" sketch:type="MSShapeGroup"></path>
            <path d="M24.689,24.206 L42.798,24.206 C43.488,24.206 44.048,23.646 44.048,22.956 C44.048,22.266 43.488,21.706 42.798,21.706 L24.689,21.706 C23.999,21.706 23.439,22.266 23.439,22.956 C23.439,23.646 23.999,24.206 24.689,24.206 L24.689,24.206 Z" id="Shape" sketch:type="MSShapeGroup"></path>
            <path d="M24.689,28.792 L36.753,28.792 C37.443,28.792 38.003,28.232 38.003,27.542 C38.003,26.852 37.443,26.292 36.753,26.292 L24.689,26.292 C23.999,26.292 23.439,26.852 23.439,27.542 C23.439,28.232 23.999,28.792 24.689,28.792 L24.689,28.792 Z" id="Shape" sketch:type="MSShapeGroup"></path>
            <path d="M24.689,33.377 L36.753,33.377 C37.443,33.377 38.003,32.817 38.003,32.127 C38.003,31.437 37.443,30.877 36.753,30.877 L24.689,30.877 C23.999,30.877 23.439,31.437 23.439,32.127 C23.439,32.817 23.999,33.377 24.689,33.377 L24.689,33.377 Z" id="Shape" sketch:type="MSShapeGroup"></path>
            <path d="M24.689,47.135 L36.753,47.135 C37.443,47.135 38.003,46.575 38.003,45.885 C38.003,45.195 37.443,44.635 36.753,44.635 L24.689,44.635 C23.999,44.635 23.439,45.195 23.439,45.885 C23.439,46.575 23.999,47.135 24.689,47.135 L24.689,47.135 Z" id="Shape" sketch:type="MSShapeGroup"></path>
            <path d="M24.689,37.964 L48.818,37.964 C49.508,37.964 50.068,37.404 50.068,36.714 C50.068,36.024 49.508,35.464 48.818,35.464 L24.689,35.464 C23.999,35.464 23.439,36.024 23.439,36.714 C23.439,37.404 23.999,37.964 24.689,37.964 L24.689,37.964 Z" id="Shape" sketch:type="MSShapeGroup"></path>
            <path d="M24.689,42.549 L48.818,42.549 C49.508,42.549 50.068,41.989 50.068,41.299 C50.068,40.609 49.508,40.049 48.818,40.049 L24.689,40.049 C23.999,40.049 23.439,40.609 23.439,41.299 C23.439,41.989 23.999,42.549 24.689,42.549 L24.689,42.549 Z" id="Shape" sketch:type="MSShapeGroup"></path>
            <path d="M26.67,1.377 L26.67,10.377 C26.67,11.067 27.23,11.627 27.92,11.627 C28.61,11.627 29.17,11.067 29.17,10.377 L29.17,1.377 C29.17,0.687 28.61,0.127 27.92,0.127 C27.23,0.127 26.67,0.687 26.67,1.377 L26.67,1.377 Z" id="Shape" sketch:type="MSShapeGroup"></path>
            <path d="M37.502,3.302 L33.978,9.78 C33.648,10.386 33.872,11.145 34.478,11.475 C34.668,11.578 34.873,11.627 35.075,11.627 C35.518,11.627 35.947,11.391 36.174,10.974 L39.698,4.496 C40.028,3.89 39.804,3.131 39.198,2.801 C38.588,2.471 37.831,2.694 37.502,3.302 L37.502,3.302 Z" id="Shape" sketch:type="MSShapeGroup"></path>
            <path d="M43.202,7.607 L41.772,9.663 C41.378,10.229 41.518,11.009 42.084,11.403 C42.302,11.554 42.551,11.627 42.797,11.627 C43.193,11.627 43.581,11.44 43.824,11.09 L45.254,9.034 C45.648,8.468 45.508,7.688 44.942,7.294 C44.375,6.9 43.597,7.041 43.202,7.607 L43.202,7.607 Z" id="Shape" sketch:type="MSShapeGroup"></path>
            <path d="M16.803,2.801 C16.197,3.131 15.973,3.89 16.303,4.496 L19.827,10.974 C20.054,11.391 20.482,11.627 20.926,11.627 C21.128,11.627 21.332,11.578 21.523,11.475 C22.129,11.145 22.353,10.386 22.023,9.78 L18.499,3.302 C18.168,2.694 17.41,2.471 16.803,2.801 L16.803,2.801 Z" id="Shape" sketch:type="MSShapeGroup"></path>
            <path d="M11.058,7.294 C10.492,7.688 10.352,8.467 10.746,9.034 L12.176,11.09 C12.419,11.44 12.808,11.627 13.203,11.627 C13.449,11.627 13.698,11.555 13.916,11.403 C14.482,11.009 14.622,10.23 14.228,9.663 L12.798,7.607 C12.403,7.041 11.626,6.9 11.058,7.294 L11.058,7.294 Z" id="Shape" sketch:type="MSShapeGroup"></path>
            <path d="M26.831,59.624 L26.831,68.624 C26.831,69.314 27.391,69.874 28.081,69.874 C28.771,69.874 29.331,69.314 29.331,68.624 L29.331,59.624 C29.331,58.934 28.771,58.374 28.081,58.374 C27.391,58.374 26.831,58.933 26.831,59.624 L26.831,59.624 Z" id="Shape" sketch:type="MSShapeGroup"></path>
            <path d="M19.827,59.026 L16.303,65.505 C15.973,66.111 16.197,66.87 16.803,67.2 C16.993,67.303 17.198,67.352 17.4,67.352 C17.843,67.352 18.272,67.116 18.499,66.699 L22.023,60.22 C22.353,59.614 22.129,58.855 21.523,58.525 C20.913,58.195 20.156,58.418 19.827,59.026 L19.827,59.026 Z" id="Shape" sketch:type="MSShapeGroup"></path>
            <path d="M12.175,58.91 L10.745,60.966 C10.351,61.532 10.491,62.312 11.057,62.706 C11.275,62.857 11.524,62.93 11.77,62.93 C12.166,62.93 12.554,62.743 12.797,62.393 L14.227,60.337 C14.621,59.771 14.481,58.991 13.915,58.597 C13.348,58.203 12.569,58.343 12.175,58.91 L12.175,58.91 Z" id="Shape" sketch:type="MSShapeGroup"></path>
            <path d="M34.478,58.525 C33.872,58.855 33.648,59.614 33.978,60.22 L37.502,66.699 C37.729,67.116 38.157,67.352 38.601,67.352 C38.803,67.352 39.007,67.303 39.198,67.2 C39.804,66.87 40.028,66.111 39.698,65.505 L36.174,59.026 C35.843,58.418 35.085,58.195 34.478,58.525 L34.478,58.525 Z" id="Shape" sketch:type="MSShapeGroup"></path>
            <path d="M42.085,58.597 C41.519,58.991 41.379,59.77 41.773,60.337 L43.203,62.393 C43.446,62.743 43.835,62.93 44.23,62.93 C44.476,62.93 44.725,62.858 44.943,62.706 C45.509,62.312 45.649,61.533 45.255,60.966 L43.825,58.91 C43.432,58.343 42.653,58.203 42.085,58.597 L42.085,58.597 Z" id="Shape" sketch:type="MSShapeGroup"></path>
        </g>
    </g>
</svg>